<svg xmlns="http://www.w3.org/2000/svg" viewBox="0 0 800 800">
  <rect width="800" height="800" rx="179" fill="#7C3AED"/>
  <g transform="translate(400 385) scale(1.6)" fill="none" stroke="#fff">
    <!-- Connections -->
    <line x1="0" y1="0" x2="0" y2="-155" stroke-width="7" opacity="0.4"/>
    <line x1="0" y1="0" x2="-147" y2="-48" stroke-width="7" opacity="0.4"/>
    <line x1="0" y1="0" x2="-91" y2="125" stroke-width="7" opacity="0.4"/>
    <line x1="0" y1="0" x2="91" y2="125" stroke-width="7" opacity="0.4"/>
    <line x1="0" y1="0" x2="147" y2="-48" stroke-width="7" opacity="0.4"/>
    <line x1="0" y1="-155" x2="-147" y2="-48" stroke-width="5" opacity="0.25"/>
    <line x1="-147" y1="-48" x2="-91" y2="125" stroke-width="5" opacity="0.25"/>
    <line x1="-91" y1="125" x2="91" y2="125" stroke-width="5" opacity="0.25"/>
    <line x1="91" y1="125" x2="147" y2="-48" stroke-width="5" opacity="0.25"/>
    <line x1="147" y1="-48" x2="0" y2="-155" stroke-width="5" opacity="0.25"/>
    <!-- Center: circle -->
    <circle cx="0" cy="0" r="30" fill="#fff" stroke="none"/>
    <!-- Top: diamond -->
    <polygon points="0,-180 22,-155 0,-130 -22,-155" fill="#FFD60A" stroke="none"/>
    <!-- Top-left: rounded square -->
    <rect x="-170" y="-72" width="46" height="46" rx="10" fill="#FF6B6B" stroke="none"/>
    <!-- Bottom-left: triangle -->
    <polygon points="-91,98 -65,148 -117,148" fill="#34D399" stroke="none"/>
    <!-- Bottom-right: hexagon -->
    <polygon points="91,100 113,107 113,130 91,137 69,130 69,107" fill="#60A5FA" stroke="none" transform="scale(1.6) translate(-34,-62)"/>
    <!-- Top-right: pentagon -->
    <polygon points="147,-73 170,-58 163,-33 131,-33 124,-58" fill="#F472B6" stroke="none"/>
  </g>
</svg>
